<svg width="144" height="144" viewBox="0 0 144 144" fill="none" xmlns="http://www.w3.org/2000/svg">
<rect width="144" height="144" fill="#06235E"/>
<path d="M14.5788 63.5159V63.5678L14.5674 63.6359C14.5528 63.73 14.5382 63.8258 14.5252 63.9215V63.9377C14.5252 63.9555 14.5252 63.975 14.5252 63.9929C14.5252 64.0496 14.509 64.1048 14.5025 64.1551L14.4798 64.3044V64.3303V64.3741V64.3968V64.4196V64.4309V64.4763V64.5104V64.5331C14.4571 64.7132 14.4328 64.8965 14.41 65.0815C14.3873 65.2664 14.3727 65.406 14.3533 65.5682C14.3533 65.6315 14.3387 65.6931 14.3322 65.7564V65.7743C14.3095 65.9722 14.2884 66.175 14.2673 66.3729C14.2527 66.5206 14.2413 66.6731 14.2251 66.8239V66.8386L14.2105 66.9878C14.2105 67.0462 14.2008 67.1062 14.1959 67.1646C14.191 67.2231 14.1845 67.2896 14.1797 67.3529C14.1797 67.3853 14.1797 67.4177 14.1797 67.4502C14.1797 67.4826 14.1716 67.5459 14.1667 67.5946L14.1553 67.7747V67.859C14.1375 68.0635 14.1229 68.2776 14.1115 68.5226V68.5372C14.1115 68.641 14.1002 68.7465 14.0953 68.8503C14.0904 68.9542 14.0823 69.0694 14.0791 69.1748V69.2186C14.0791 69.2316 14.0791 69.2429 14.0791 69.2543C14.0791 69.2657 14.0791 69.303 14.0791 69.3289V69.3679V69.4019C14.0791 69.5252 14.0677 69.6485 14.0645 69.7719C14.0645 69.8238 14.0645 69.8757 14.0645 69.9341C14.0564 70.1596 14.0499 70.3705 14.0466 70.583C14.0466 70.6155 14.0466 70.6512 14.0466 70.6869V70.7859C14.0466 70.9643 14.0385 71.1379 14.0385 71.3164V71.6409C14.0385 71.6944 14.0385 71.7479 14.0385 71.8031C14.0385 71.8583 14.0385 71.8793 14.0385 71.9183C14.0385 71.9572 14.0385 71.9945 14.0385 72.0319C14.0385 72.0692 14.0385 72.1373 14.0385 72.1941V72.3693V72.517C14.1957 82.9349 18.4444 92.8729 25.867 100.185C33.2896 107.496 43.2904 111.595 53.7095 111.596C55.367 111.594 57.0229 111.489 58.6675 111.283C59.409 111.19 60.1472 111.086 60.8805 110.958C53.406 106.423 47.3829 99.8469 43.5208 92.0036C43.292 91.5364 43.073 91.0659 42.8605 90.5938C42.8378 90.5418 42.8118 90.4915 42.7875 90.4396C39.6117 83.268 38.3364 75.3994 39.0843 67.5918C39.8322 59.7842 42.5781 52.3008 47.0576 45.8625C48.2796 44.1127 49.6219 42.4501 51.0747 40.8866C58.1585 33.2679 67.6325 28.2981 77.9272 26.8003C88.2219 25.3026 98.7193 27.3669 107.68 32.6513C107.677 32.6469 107.673 32.643 107.669 32.6399L107.474 32.4485C107.388 32.3641 107.299 32.2863 107.211 32.197L107.13 32.1192L107.109 32.1013V32.0932L107.096 32.0786C107.022 32.0072 106.934 31.9293 106.856 31.8547C106.778 31.7801 106.694 31.6925 106.601 31.6162L106.592 31.6049L106.584 31.5951L106.562 31.5773L106.519 31.5367C106.421 31.4442 106.326 31.3566 106.228 31.269L106.21 31.2512L106.082 31.136L106.019 31.0792C105.878 30.951 105.738 30.8245 105.6 30.7012C105.462 30.5779 105.286 30.4254 105.133 30.2923L104.982 30.1642C104.877 30.0733 104.773 29.9825 104.658 29.8916L104.444 29.7131L104.328 29.6158L104.242 29.546L104.199 29.5087C104.07 29.4016 103.949 29.3011 103.825 29.2037L103.808 29.1875H103.799L103.788 29.1778L103.774 29.1664C103.681 29.0885 103.587 29.0155 103.494 28.9409L103.486 28.9328C103.189 28.6927 102.878 28.446 102.568 28.2124H102.56C102.477 28.1459 102.398 28.0842 102.309 28.0194L102.206 27.9415L102.145 27.8944L102.102 27.862L102.09 27.8522L102.078 27.8441H102.07L102.054 27.8344L101.88 27.7046L101.817 27.6576L101.58 27.4823L101.505 27.4288L101.371 27.3315L101.277 27.2633C101.184 27.1936 101.09 27.1287 100.996 27.0621L100.929 27.0135L100.904 26.9956L100.879 26.9778L100.191 26.491H100.182C100.078 26.4197 99.9755 26.3483 99.87 26.2785L99.7954 26.2266H99.7873C99.6251 26.126 99.4774 26.0222 99.3201 25.92L99.2941 25.9037L99.2827 25.8956L99.2681 25.8875L99.1692 25.8226L98.8333 25.6052L98.8155 25.5939L98.7993 25.5825C98.637 25.4722 98.4634 25.3684 98.2915 25.258L98.2736 25.2483L98.2509 25.2337C98.0789 25.1234 97.9037 25.0147 97.7269 24.9092L97.4494 24.747L97.3213 24.6707L97.159 24.575H97.1477L97.0503 24.5182L96.6707 24.2992L96.5766 24.2424L96.4468 24.1678C96.33 24.0996 96.2132 24.0315 96.0964 23.9666L96.0623 23.9488C95.2819 23.5123 94.4853 23.0921 93.6838 22.693L93.6303 22.6654H93.6222L93.6043 22.6573C93.4291 22.5648 93.2523 22.4789 93.0706 22.3961L92.5984 22.1706L92.5563 22.1511L92.5287 22.1381H92.5173H92.506C91.9479 21.8737 91.4368 21.6514 90.942 21.4356H90.929H90.9176H90.9063H90.8933C90.7749 21.3821 90.6564 21.3318 90.5347 21.2734L90.4845 21.2539L90.4488 21.2377L90.2346 21.1485L90.0058 21.056L89.8988 21.0122C89.3682 20.798 88.9253 20.6261 88.5327 20.4784L88.2926 20.3892L88.2601 20.3778L88.0087 20.2837C87.337 20.0404 86.6361 19.797 85.9336 19.578H85.9255H85.9174L85.8833 19.5666C85.7503 19.5228 85.6156 19.4823 85.4826 19.4417L85.0705 19.3152L84.8255 19.2405C84.5205 19.1513 84.2301 19.0686 83.951 18.9907H83.9332H83.9235L83.8099 18.9599L83.6282 18.9112L83.5909 18.8998L83.5373 18.8836C82.9581 18.7214 82.3676 18.5883 81.7754 18.4521C81.4266 18.3709 81.0794 18.2898 80.7273 18.2184C80.1368 18.0935 79.5462 17.9669 78.9427 17.8599C78.7204 17.8209 78.5014 17.782 78.2791 17.7463H78.2678H78.2532C78.0341 17.7074 77.8119 17.6717 77.5896 17.6392L77.2813 17.5938L76.8952 17.5354C76.2614 17.4478 75.6249 17.3705 74.9856 17.3034C73.7526 17.1752 72.5099 17.0892 71.2671 17.0422C70.576 17.0162 69.8832 17 69.1921 17C68.0272 17 66.859 17.0422 65.6942 17.1152C65.5709 17.1152 65.4492 17.1265 65.3259 17.1347C64.0393 17.2239 62.756 17.3569 61.4873 17.5338L60.8059 17.6344H60.788L14.5837 63.4932L14.5788 63.5159Z" fill="white"/>
<path d="M123.437 80.251V80.2088V80.165C123.448 80.0871 123.46 80.0027 123.469 79.9313V79.9135V79.8843V79.8518C123.484 79.7513 123.502 79.6474 123.513 79.5468V79.4787L123.525 79.4106C123.525 79.3781 123.533 79.3457 123.539 79.3165L123.581 78.9725L123.614 78.7356C123.643 78.5069 123.667 78.2943 123.692 78.0867V78.0575C123.716 77.853 123.736 77.66 123.753 77.4653C123.77 77.3031 123.786 77.1408 123.797 76.9964V76.9883L123.812 76.839C123.823 76.7303 123.833 76.6233 123.839 76.5146V76.4724V76.4302C123.854 76.2907 123.864 76.1511 123.872 76.0132V75.9921V75.9565C123.89 75.7553 123.904 75.5427 123.916 75.3075V75.2929C123.93 75.0771 123.942 74.8662 123.955 74.6585V74.5969V74.5109V74.4249C123.966 74.2497 123.972 74.0728 123.979 73.8944C123.987 73.6543 123.995 73.4271 124 73.1984V73.1692V73.0653C124 72.9031 124 72.7409 124 72.5786V72.392V72.3628C124 72.2201 124 72.0789 124 71.9394C124 71.7999 124 71.6393 124 71.4949V71.4835V71.3407C123.844 60.9223 119.596 50.9833 112.173 43.6712C104.75 36.359 94.7486 32.2608 84.329 32.2619C81.9241 32.2626 79.5241 32.4798 77.158 32.9109C87.4852 39.1454 94.9225 49.2167 97.8425 60.9212C100.763 72.6256 98.9276 85.0102 92.7391 95.3651C86.5506 105.72 76.5126 113.202 64.8212 116.174C53.1299 119.146 40.7373 117.367 30.355 111.224L30.3663 111.236L30.3988 111.265L30.428 111.294C30.4596 111.328 30.4932 111.361 30.5286 111.391L30.6389 111.498C30.7281 111.588 30.8174 111.674 30.9082 111.76L30.9228 111.774L30.9407 111.79C31.0883 111.933 31.2652 112.102 31.4274 112.258L31.455 112.279L31.4777 112.302C31.5896 112.409 31.7032 112.516 31.8184 112.626L31.8265 112.634L31.8379 112.642C32.0358 112.826 32.2386 113.006 32.4463 113.187L32.4592 113.195L32.4706 113.207L32.873 113.562L32.8989 113.582L32.9881 113.659H32.9962L33.3873 113.997L33.4667 114.065L33.4846 114.083C33.5901 114.172 33.6955 114.261 33.8091 114.347L33.8513 114.38L33.8902 114.415C33.9827 114.495 34.0865 114.578 34.2017 114.67L34.2406 114.699L34.2763 114.729C34.3591 114.8 34.4386 114.868 34.5213 114.927L34.5489 114.948L34.5716 114.967C34.8653 115.204 35.1703 115.441 35.4785 115.676C35.5434 115.73 35.6116 115.78 35.6765 115.838C35.7414 115.897 35.8273 115.954 35.9052 116.01C35.949 116.043 35.9912 116.072 36.0301 116.104L36.1048 116.158L36.4747 116.434L36.5899 116.516L36.7764 116.65L36.7992 116.667L36.8267 116.685C36.916 116.753 37.0101 116.818 37.1026 116.885L37.2031 116.956C37.4287 117.118 37.659 117.281 37.8894 117.443L37.9105 117.454L37.9316 117.469C38.0322 117.54 38.136 117.608 38.2366 117.677L38.3145 117.727L38.5692 117.889L38.8385 118.069C38.9748 118.158 39.1159 118.252 39.262 118.342C39.408 118.431 39.5491 118.525 39.6887 118.614H40.0391L40.6637 119.21C40.7578 119.27 40.8568 119.328 40.9541 119.385C41.144 119.497 41.337 119.61 41.5285 119.709L41.5463 119.721L41.5642 119.732C41.715 119.821 41.8659 119.904 42.0217 119.99C42.8329 120.449 43.6571 120.884 44.4812 121.288C44.6646 121.38 44.8463 121.468 45.0264 121.554L45.1059 121.596C45.2778 121.676 45.4466 121.758 45.6185 121.838C46.1377 122.08 46.6682 122.325 47.1858 122.54H47.1971H47.2085L47.5962 122.703C47.6352 122.717 47.6757 122.735 47.7212 122.756L48.2403 122.97C48.6638 123.142 49.1229 123.321 49.6031 123.501H49.6194H49.634C49.7816 123.558 49.9309 123.613 50.0818 123.663H50.1029H50.1207C50.8232 123.921 51.5192 124.15 52.1893 124.369L52.2136 124.377H52.2347C52.371 124.424 52.504 124.466 52.6403 124.507H52.6614H52.6792C52.8837 124.572 53.0881 124.635 53.2925 124.697L53.4645 124.747L54.1962 124.955L54.5742 125.058H54.6034C56.1203 125.467 57.6649 125.811 59.1867 126.081H59.2045H59.2224C59.4057 126.113 59.6053 126.149 59.8535 126.191H59.8681H59.8794C60.126 126.233 60.3289 126.266 60.5171 126.291H60.5463H60.5755C60.7896 126.327 61.0054 126.356 61.2244 126.386H61.2423C66.3552 127.097 71.5421 127.097 76.6551 126.386L76.7086 126.377C76.913 126.348 77.1142 126.321 77.317 126.288H77.3462H77.3673L123.377 80.2802C123.437 80.3029 123.437 80.285 123.437 80.251Z" fill="white"/>
</svg>
