<svg width="300" height="90" viewBox="0 0 300 90" fill="none" xmlns="http://www.w3.org/2000/svg">
<path d="M0.417781 37.9705V38.0107L0.409003 38.0634C0.397712 38.1361 0.386419 38.2101 0.376382 38.2842V38.2967C0.376382 38.3105 0.376382 38.3256 0.376382 38.3394C0.376382 38.3833 0.363837 38.4259 0.358818 38.4648L0.341254 38.5802V38.6003V38.6342V38.6518V38.6693V38.6781V38.7132V38.7396V38.7571C0.32369 38.8964 0.304872 39.0382 0.287307 39.1812C0.269743 39.3242 0.258447 39.4321 0.243392 39.5576C0.243392 39.6065 0.2321 39.6542 0.227081 39.7031V39.7169C0.209517 39.87 0.193216 40.0268 0.176906 40.1799C0.165615 40.294 0.156831 40.412 0.144285 40.5286V40.5399L0.132991 40.6554C0.132991 40.7005 0.12546 40.7469 0.121696 40.7921C0.117932 40.8373 0.112921 40.8887 0.109157 40.9376C0.109157 40.9627 0.109157 40.9878 0.109157 41.0129C0.109157 41.038 0.10288 41.0869 0.099116 41.1246L0.0903387 41.2638V41.3291C0.0765381 41.4871 0.0652462 41.6528 0.0564641 41.8422V41.8535C0.0564641 41.9338 0.0476792 42.0153 0.0439154 42.0956C0.0401517 42.1759 0.033876 42.265 0.0313668 42.3465V42.3804C0.0313668 42.3905 0.0313668 42.3992 0.0313668 42.408C0.0313668 42.4168 0.0313668 42.4457 0.0313668 42.4657V42.4958V42.5222C0.0313668 42.6175 0.0225908 42.7129 0.0200816 42.8082C0.0200816 42.8484 0.0200816 42.8885 0.0200816 42.9337C0.0138087 43.1081 0.0087883 43.2712 0.0062791 43.4355C0.0062791 43.4606 0.0062791 43.4882 0.0062791 43.5158V43.5924C0.0062791 43.7304 0 43.8646 0 44.0026V44.2535C0 44.2949 0 44.3363 0 44.379C0 44.4216 0 44.438 0 44.4681C0 44.4982 0 44.527 0 44.5559C0 44.5847 0 44.6374 0 44.6814V44.8168V44.931C0.121567 52.9871 3.40707 60.6721 9.14693 66.3263C14.8868 71.9805 22.6203 75.1501 30.6774 75.1505C31.9592 75.1488 33.2396 75.0679 34.5114 74.9083C35.0848 74.8368 35.6556 74.7565 36.2227 74.6574C30.4427 71.1506 25.7851 66.0652 22.7985 60C22.6216 59.6386 22.4522 59.2748 22.2879 58.9097C22.2703 58.8696 22.2503 58.8307 22.2314 58.7905C19.7756 53.2447 18.7894 47.16 19.3678 41.1224C19.9461 35.0849 22.0696 29.298 25.5335 24.3193C26.4785 22.9661 27.5164 21.6804 28.6399 20.4714C34.1177 14.5799 41.444 10.7367 49.4048 9.57854C57.3657 8.42036 65.4833 10.0167 72.4128 14.1031C72.4104 14.0997 72.4074 14.0967 72.404 14.0943L72.2534 13.9463C72.1869 13.881 72.1179 13.8208 72.0502 13.7518L71.9874 13.6916L71.9711 13.6778V13.6715L71.9611 13.6602C71.9034 13.605 71.8356 13.5448 71.7754 13.4871C71.7152 13.4294 71.6499 13.3616 71.5784 13.3027L71.5709 13.2939L71.5646 13.2863L71.5483 13.2725L71.5145 13.2412C71.4392 13.1697 71.3652 13.1019 71.2899 13.0342L71.2761 13.0204L71.177 12.9313L71.1281 12.8874C71.0189 12.7883 70.911 12.6904 70.8044 12.5951C70.6977 12.4997 70.561 12.3818 70.443 12.2789L70.3264 12.1798C70.2448 12.1095 70.1645 12.0393 70.0754 11.969L69.9098 11.831L69.8207 11.7557L69.7543 11.7018L69.7204 11.6729C69.6213 11.5901 69.5272 11.5123 69.4318 11.4371L69.418 11.4245H69.4118L69.403 11.417L69.3917 11.4082C69.3202 11.348 69.2474 11.2915 69.1759 11.2338L69.1696 11.2276C68.94 11.0419 68.6992 10.8512 68.4595 10.6705H68.4532C68.3893 10.6191 68.3278 10.5714 68.2588 10.5212L68.1797 10.461L68.1321 10.4246L68.0994 10.3995L68.0894 10.392L68.0806 10.3857H68.0744L68.0618 10.3782L67.9276 10.2778L67.8786 10.2414L67.6955 10.1059L67.6378 10.0645L67.5336 9.98927L67.4609 9.93658C67.3894 9.88263 67.3166 9.83245 67.2438 9.78101L67.1924 9.74337L67.1723 9.72957L67.1535 9.71576L66.6215 9.33938H66.614C66.5337 9.28418 66.4547 9.22898 66.3731 9.17503L66.3154 9.13489H66.3091C66.1837 9.05711 66.0695 8.97681 65.9478 8.89777L65.9277 8.88522L65.919 8.87895L65.9077 8.87268L65.8311 8.8225L65.5714 8.65438L65.5576 8.6456L65.5451 8.63681C65.4196 8.5515 65.2854 8.47121 65.1524 8.3859L65.1386 8.37836L65.121 8.36708C64.988 8.28177 64.8526 8.1977 64.7158 8.11615L64.5013 7.9907L64.4022 7.93173L64.2767 7.85771H64.2679L64.1926 7.8138L63.8991 7.64443L63.8263 7.60052L63.7259 7.5428C63.6356 7.49011 63.5453 7.43742 63.4549 7.38723L63.4286 7.37344C62.8251 7.03595 62.2091 6.71101 61.5894 6.40238L61.548 6.38105H61.5417L61.5279 6.37477C61.3924 6.30326 61.2556 6.23677 61.1151 6.17279L60.75 5.9984L60.7174 5.98335L60.6961 5.9733H60.6873H60.6785C60.2469 5.76881 59.8517 5.59693 59.4691 5.43007H59.459H59.4503H59.4415H59.4315C59.3399 5.38866 59.2483 5.34977 59.1542 5.30461L59.1153 5.28955L59.0877 5.277L58.9221 5.208L58.7452 5.13649L58.6624 5.10261C58.2521 4.93701 57.9096 4.80403 57.606 4.68986L57.4203 4.62086L57.3952 4.61207L57.2008 4.5393C56.6814 4.35111 56.1394 4.16293 55.5961 3.99356H55.5899H55.5836L55.5573 3.98477C55.4544 3.9509 55.3503 3.91954 55.2474 3.88817L54.9287 3.79031L54.7393 3.7326C54.5034 3.6636 54.2788 3.59962 54.063 3.5394H54.0492H54.0417L53.9539 3.51555L53.8134 3.47792L53.7845 3.46914L53.7431 3.45659C53.2952 3.33113 52.8386 3.22825 52.3806 3.12287C52.1109 3.06014 51.8424 2.9974 51.5702 2.9422C51.1135 2.8456 50.6568 2.74774 50.1901 2.66493C50.0182 2.63482 49.8488 2.60471 49.677 2.57711H49.6682H49.6569C49.4875 2.547 49.3156 2.51941 49.1438 2.49432L48.9054 2.45919L48.6068 2.41402C48.1167 2.34627 47.6244 2.28647 47.1301 2.23461C46.1766 2.1355 45.2156 2.069 44.2546 2.03262C43.7201 2.01255 43.1844 2 42.65 2C41.7492 2 40.8459 2.03262 39.9451 2.08908C39.8497 2.08908 39.7556 2.09786 39.6603 2.10413C38.6654 2.17313 37.673 2.27601 36.6919 2.41276L36.165 2.49055H36.1512L0.421552 37.953L0.417781 37.9705Z" fill="white" style="mix-blend-mode:color"/>
<path d="M84.5974 50.9117V50.8791V50.8452C84.6062 50.785 84.615 50.7197 84.6225 50.6645V50.6507V50.6281V50.6031C84.6338 50.5253 84.6476 50.445 84.6563 50.3672V50.3145L84.6651 50.2618C84.6651 50.2367 84.6714 50.2116 84.6764 50.189L84.709 49.9231L84.7341 49.7399C84.7567 49.563 84.7755 49.3986 84.7943 49.238V49.2155C84.8132 49.0574 84.8282 48.9081 84.842 48.7575C84.8546 48.6321 84.8671 48.5066 84.8759 48.395V48.3887L84.8872 48.2733C84.896 48.1892 84.9035 48.1064 84.9085 48.0223V47.9897V47.9571C84.9198 47.8492 84.9273 47.7413 84.9336 47.6347V47.6184V47.5908C84.9474 47.4352 84.9587 47.2708 84.9675 47.0889V47.0776C84.9788 46.9108 84.9876 46.7477 84.9976 46.5871V46.5394V46.4729V46.4064C85.0064 46.2709 85.0114 46.1342 85.0164 45.9962C85.0227 45.8105 85.029 45.6348 85.0327 45.458V45.4354V45.3551C85.0327 45.2296 85.0327 45.1042 85.0327 44.9787V44.8344V44.8118C85.0327 44.7014 85.0327 44.5923 85.0327 44.4844C85.0327 44.3765 85.0327 44.2523 85.0327 44.1406V44.1318V44.0214C84.9125 35.9649 81.6274 28.2791 75.8872 22.6247C70.1471 16.9702 62.4128 13.8011 54.3554 13.802C52.4956 13.8025 50.6397 13.9705 48.81 14.3038C56.796 19.125 62.5472 26.9131 64.8053 35.9641C67.0633 45.0151 65.6443 54.592 60.8588 62.5993C56.0733 70.6067 48.3109 76.3926 39.2701 78.6909C30.2292 80.9893 20.6461 79.613 12.6175 74.8632L12.6262 74.872L12.6513 74.8945L12.6739 74.9171C12.6983 74.9437 12.7243 74.9688 12.7517 74.9924L12.837 75.0752C12.906 75.1442 12.975 75.2107 13.0453 75.2772L13.0566 75.2885L13.0704 75.301C13.1845 75.4114 13.3213 75.5419 13.4468 75.6623L13.4681 75.6786L13.4856 75.6962C13.5722 75.779 13.66 75.8618 13.7491 75.9471L13.7554 75.9534L13.7642 75.9597C13.9172 76.1014 14.074 76.2407 14.2346 76.3812L14.2447 76.3875L14.2535 76.3963L14.5646 76.671L14.5847 76.6861L14.6537 76.7463H14.6599L14.9623 77.0073L15.0238 77.06L15.0376 77.0738C15.1191 77.1428 15.2007 77.2118 15.2885 77.2783L15.3211 77.3033L15.3512 77.331C15.4227 77.3924 15.503 77.4564 15.5921 77.5279L15.6222 77.5505L15.6498 77.5731C15.7138 77.6283 15.7753 77.681 15.8393 77.7262L15.8606 77.7425L15.8782 77.7575C16.1052 77.9407 16.3411 78.1239 16.5795 78.3058C16.6297 78.3472 16.6824 78.3861 16.7325 78.4312C16.7827 78.4764 16.8492 78.5203 16.9094 78.5642C16.9433 78.5893 16.9759 78.6119 17.006 78.637L17.0637 78.6784L17.3498 78.8917L17.4389 78.9557L17.5832 79.0585L17.6007 79.0723L17.622 79.0861C17.691 79.1388 17.7638 79.189 17.8353 79.2404L17.9131 79.2957C18.0875 79.4211 18.2657 79.5466 18.4438 79.672L18.4601 79.6808L18.4764 79.6921C18.5542 79.7473 18.6345 79.8 18.7123 79.8527L18.7725 79.8916L18.9695 80.0171L19.1777 80.1563C19.2831 80.2253 19.3923 80.2981 19.5052 80.3671C19.6181 80.4361 19.7273 80.5088 19.8351 80.5778H20.1061L20.5892 81.0383C20.6619 81.0847 20.7385 81.1299 20.8137 81.1738C20.9605 81.2604 21.1098 81.3482 21.2579 81.4247L21.2717 81.4335L21.2855 81.4423C21.4021 81.5113 21.5188 81.5753 21.6393 81.6417C22.2666 81.9968 22.9039 82.333 23.5412 82.6454C23.683 82.7169 23.8235 82.7847 23.9628 82.8512L24.0242 82.8838C24.1572 82.9453 24.2877 83.0092 24.4207 83.0707C24.8222 83.2577 25.2324 83.4471 25.6326 83.614H25.6414H25.6502L25.95 83.7394C25.9802 83.7507 26.0115 83.7645 26.0467 83.7808L26.4481 83.9464C26.7756 84.0794 27.1306 84.2174 27.502 84.3567H27.5145H27.5258C27.64 84.4006 27.7554 84.4433 27.8721 84.4821H27.8884H27.9022C28.4454 84.6816 28.9837 84.8585 29.5018 85.0279L29.5206 85.0342H29.5369C29.6423 85.0705 29.7452 85.1032 29.8506 85.1345H29.8669H29.8807C30.0388 85.1847 30.1969 85.2337 30.3549 85.2813L30.4879 85.3202L31.0537 85.4808L31.3461 85.5611H31.3686C32.5417 85.8773 33.7361 86.1432 34.9129 86.3515H34.9267H34.9405C35.0823 86.3766 35.2366 86.4042 35.4285 86.4368H35.4398H35.4486C35.6393 86.4694 35.7961 86.4945 35.9417 86.5146H35.9642H35.9868C36.1524 86.5422 36.3193 86.5648 36.4887 86.5874H36.5025C40.4563 87.1376 44.4673 87.1376 48.4211 86.5874L48.4625 86.5811C48.6206 86.5585 48.7762 86.5372 48.933 86.5121H48.9556H48.9719L84.551 50.9343C84.5974 50.9518 84.5974 50.938 84.5974 50.9117Z" fill="white" style="mix-blend-mode:color"/>
<path d="M282.554 16.7312H287.331L298.081 44.4151H293.772L290.616 36.0118H278.757L275.643 44.4151H271.548L282.554 16.7312ZM289.592 33.1539L284.9 20.6556H284.516L279.824 33.1539H289.592Z" fill="white" style="mix-blend-mode:color"/>
<path d="M256.364 19.6318H246.98V16.7312H269.886V19.6318H260.545V44.4151H256.364V19.6318Z" fill="white" style="mix-blend-mode:color"/>
<path d="M238.25 16.7312H242.388V44.4151H238.25V16.7312Z" fill="white" style="mix-blend-mode:color"/>
<path d="M221.941 44.8417C219.581 44.8417 216.766 44.6142 213.496 44.1592V40.7041C216.794 41.415 219.695 41.7705 222.197 41.7705C224.302 41.7705 225.837 41.543 226.804 41.088C227.771 40.6045 228.255 39.723 228.255 38.4433V34.8602C228.255 33.6658 227.913 32.8269 227.231 32.3434C226.548 31.86 225.354 31.6183 223.648 31.6183H220.406C217.704 31.6183 215.785 31.078 214.647 29.9973C213.51 28.9167 212.941 27.2389 212.941 24.9639V22.7458C212.941 21.2386 213.268 20.0158 213.922 19.0773C214.605 18.1389 215.728 17.4422 217.292 16.9872C218.884 16.5322 221.06 16.3047 223.818 16.3047C225.667 16.3047 228.041 16.4611 230.942 16.7739V19.8878C227.7 19.4044 225.226 19.1627 223.52 19.1627C220.875 19.1627 219.126 19.4186 218.273 19.9305C217.391 20.4708 216.951 21.3666 216.951 22.6178V25.7744C216.951 26.7413 217.292 27.4522 217.974 27.9072C218.685 28.3338 219.894 28.547 221.6 28.547H224.927C226.833 28.547 228.311 28.7745 229.364 29.2295C230.444 29.6845 231.198 30.3813 231.624 31.3197C232.079 32.2297 232.307 33.4667 232.307 35.0308V37.0356C232.307 38.9978 231.937 40.5477 231.198 41.6852C230.487 42.8227 229.378 43.6331 227.871 44.1166C226.363 44.6 224.387 44.8417 221.941 44.8417Z" fill="white" style="mix-blend-mode:color"/>
<path d="M202.676 16.7312H206.813V44.4151H202.676V16.7312Z" fill="white" style="mix-blend-mode:color"/>
<path d="M175.724 16.7312H185.45C187.895 16.7312 189.801 16.8876 191.166 17.2004C192.559 17.4848 193.569 18.0109 194.194 18.7787C194.848 19.5465 195.175 20.6698 195.175 22.1485V26.926C195.175 28.5754 194.493 29.8551 193.128 30.7651C191.791 31.6467 190.085 32.0875 188.009 32.0875L196.882 44.4151H191.806L183.871 32.5993H179.862V44.4151H175.724V16.7312ZM185.279 29.8693C187.327 29.8693 188.791 29.6276 189.673 29.1442C190.583 28.6323 191.038 27.7223 191.038 26.4142V22.5751C191.038 20.4992 189.246 19.4612 185.663 19.4612H179.862V29.8693H185.279Z" fill="white" style="mix-blend-mode:color"/>
<path d="M157.608 44.8417C149.873 44.8417 146.005 42.3392 146.005 37.3342V24.2388C146.005 18.9494 149.873 16.3047 157.608 16.3047C165.428 16.3047 169.338 18.9352 169.338 24.1961V37.3342C169.338 40.0073 168.257 41.9269 166.096 43.0928C163.935 44.2588 161.105 44.8417 157.608 44.8417ZM157.693 42.0691C162.783 42.0691 165.328 40.4766 165.328 37.2916V24.1108C165.328 20.6983 162.769 18.992 157.65 18.992C155.176 18.992 153.271 19.3759 151.934 20.1438C150.626 20.9116 149.972 22.2339 149.972 24.1108V37.2916C149.972 40.4766 152.546 42.0691 157.693 42.0691Z" fill="white" style="mix-blend-mode:color"/>
<path d="M110.032 16.7312H116.217L125.089 39.7656L125.217 39.8082L133.621 16.7312H139.593V44.4151H135.967V20.9968H135.754L126.838 44.4151H123.127L113.956 20.9968H113.743V44.4151H110.032V16.7312Z" fill="white" style="mix-blend-mode:color"/>
<path d="M248.141 64.4965H250.061V65.7548C250.26 64.7737 251.39 64.2832 253.452 64.2832C254.774 64.2832 255.699 64.5249 256.225 65.0084C256.765 65.4776 257.035 66.2241 257.035 67.2478V74.8193H255.116V67.3545C255.116 67.0843 255.094 66.8639 255.052 66.6933C255.009 66.5227 254.924 66.352 254.796 66.1814C254.511 65.8259 253.879 65.6482 252.898 65.6482C252.144 65.6482 251.561 65.7051 251.149 65.8188C250.751 65.9184 250.466 66.089 250.296 66.3307C250.139 66.5724 250.061 66.9137 250.061 67.3545V74.8193H248.141V64.4965Z" fill="white" style="mix-blend-mode:color"/>
<path d="M240.392 75.0326C239.482 75.0326 238.799 74.997 238.344 74.9259C237.889 74.8691 237.434 74.734 236.979 74.5207C236.51 74.3074 236.169 73.9662 235.955 73.497C235.742 73.0135 235.635 72.3666 235.635 71.5561V67.973C235.635 67.3331 235.714 66.7715 235.87 66.288C236.027 65.8046 236.233 65.4278 236.489 65.1577C236.702 64.9159 237.022 64.7311 237.448 64.6031C237.889 64.4609 238.337 64.3685 238.792 64.3259C239.304 64.2974 239.837 64.2832 240.392 64.2832C241.131 64.2832 241.686 64.3045 242.055 64.3472C242.439 64.3756 242.844 64.4467 243.271 64.5605C243.712 64.6884 244.053 64.8804 244.295 65.1363C244.536 65.3923 244.743 65.762 244.913 66.2454C245.07 66.743 245.148 67.3189 245.148 67.973V71.5561C245.148 72.7647 244.871 73.6463 244.316 74.2008C244.089 74.4283 243.762 74.606 243.335 74.734C242.908 74.862 242.468 74.9473 242.013 74.9899C241.472 75.0184 240.932 75.0326 240.392 75.0326ZM240.392 73.7742C240.989 73.7742 241.423 73.76 241.693 73.7316C241.963 73.7031 242.226 73.6249 242.482 73.497C242.738 73.3832 242.916 73.1984 243.015 72.9424C243.129 72.6723 243.186 72.3026 243.186 71.8334V67.653C243.186 67.0132 243.107 66.5511 242.951 66.2667C242.795 65.9681 242.524 65.7762 242.141 65.6909C241.771 65.5913 241.188 65.5416 240.392 65.5416C239.595 65.5416 239.005 65.5913 238.621 65.6909C238.252 65.7762 237.989 65.9681 237.832 66.2667C237.676 66.5511 237.598 67.0132 237.598 67.653V71.8334C237.598 72.3026 237.647 72.6723 237.747 72.9424C237.861 73.1984 238.046 73.3832 238.302 73.497C238.557 73.6249 238.821 73.7031 239.091 73.7316C239.361 73.76 239.794 73.7742 240.392 73.7742Z" fill="white" style="mix-blend-mode:color"/>
<path d="M230.771 60.764H232.69V62.7689H230.771V60.764ZM230.771 64.4965H232.69V74.8193H230.771V64.4965Z" fill="white" style="mix-blend-mode:color"/>
<path d="M226.519 75.0326C225.637 75.0326 224.948 74.9401 224.45 74.7553C223.953 74.5562 223.59 74.2292 223.362 73.7742C223.149 73.305 223.043 72.6509 223.043 71.812V65.7548H220.739V64.4965H223.043V61.2972H224.983V64.4965H228.673V65.7548H224.983V71.9186C224.983 72.4305 225.04 72.8144 225.154 73.0704C225.282 73.3263 225.495 73.5111 225.794 73.6249C226.107 73.7244 226.555 73.7742 227.138 73.7742C227.322 73.7742 227.834 73.7173 228.673 73.6036V74.8619C227.948 74.9757 227.23 75.0326 226.519 75.0326Z" fill="white" style="mix-blend-mode:color"/>
<path d="M213.891 75.0326C212.91 75.0326 212.149 74.9402 211.609 74.7553C211.083 74.5705 210.699 74.2434 210.457 73.7742C210.23 73.305 210.116 72.6296 210.116 71.748C210.116 70.966 210.223 70.3617 210.436 69.9352C210.663 69.4944 211.04 69.1816 211.566 68.9967C212.107 68.8119 212.867 68.7195 213.848 68.7195H216.941V67.0772C216.941 66.6933 216.863 66.4018 216.706 66.2027C216.564 65.9895 216.315 65.8402 215.96 65.7548C215.619 65.6695 215.114 65.6269 214.446 65.6269C213.379 65.6269 212.199 65.7122 210.905 65.8828V64.4752C212.313 64.3472 213.585 64.2832 214.723 64.2832C215.917 64.2832 216.799 64.3756 217.367 64.5605C217.936 64.7311 218.327 65.0368 218.541 65.4776C218.754 65.9184 218.86 66.6009 218.86 67.5251V74.8193H217.005V73.8382C216.848 74.6345 215.811 75.0326 213.891 75.0326ZM214.211 73.7742C214.908 73.7742 215.498 73.7245 215.981 73.6249C216.621 73.497 216.941 73.1984 216.941 72.7291V69.9138H213.976C213.365 69.9138 212.924 69.9636 212.654 70.0631C212.384 70.1484 212.206 70.3191 212.121 70.575C212.035 70.8309 211.993 71.2433 211.993 71.812C211.993 72.3239 212.043 72.722 212.142 73.0064C212.242 73.2766 212.419 73.4756 212.675 73.6036C212.931 73.7173 213.315 73.7742 213.827 73.7742H214.211Z" fill="white" style="mix-blend-mode:color"/>
<path d="M203.236 64.4965H205.049V66.1814C205.049 65.8544 205.191 65.5487 205.475 65.2643C205.76 64.9657 206.122 64.7311 206.563 64.5605C207.004 64.3756 207.437 64.2832 207.864 64.2832H208.802V65.9255H207.736C206.826 65.9255 206.165 66.0463 205.752 66.288C205.354 66.5155 205.155 66.935 205.155 67.5464V74.8193H203.236V64.4965Z" fill="white" style="mix-blend-mode:color"/>
<path d="M195.486 75.0326C194.576 75.0326 193.893 74.997 193.438 74.9259C192.983 74.8691 192.528 74.734 192.073 74.5207C191.604 74.3074 191.263 73.9662 191.05 73.497C190.836 73.0135 190.73 72.3666 190.73 71.5561V67.973C190.73 67.3331 190.808 66.7715 190.964 66.288C191.121 65.8046 191.327 65.4278 191.583 65.1577C191.796 64.9159 192.116 64.7311 192.543 64.6031C192.983 64.4609 193.431 64.3685 193.886 64.3259C194.398 64.2974 194.931 64.2832 195.486 64.2832C196.225 64.2832 196.78 64.3045 197.15 64.3472C197.533 64.3756 197.939 64.4467 198.365 64.5605C198.806 64.6884 199.147 64.8804 199.389 65.1363C199.631 65.3923 199.837 65.762 200.008 66.2454C200.164 66.743 200.242 67.3189 200.242 67.973V71.5561C200.242 72.7647 199.965 73.6463 199.41 74.2008C199.183 74.4283 198.856 74.606 198.429 74.734C198.003 74.862 197.562 74.9473 197.107 74.9899C196.567 75.0184 196.026 75.0326 195.486 75.0326ZM195.486 73.7742C196.083 73.7742 196.517 73.76 196.787 73.7316C197.057 73.7031 197.32 73.6249 197.576 73.497C197.832 73.3832 198.01 73.1984 198.109 72.9424C198.223 72.6723 198.28 72.3026 198.28 71.8334V67.653C198.28 67.0132 198.202 66.5511 198.045 66.2667C197.889 65.9681 197.619 65.7762 197.235 65.6909C196.865 65.5913 196.282 65.5416 195.486 65.5416C194.69 65.5416 194.1 65.5913 193.716 65.6909C193.346 65.7762 193.083 65.9681 192.927 66.2667C192.77 66.5511 192.692 67.0132 192.692 67.653V71.8334C192.692 72.3026 192.742 72.6723 192.841 72.9424C192.955 73.1984 193.14 73.3832 193.396 73.497C193.652 73.6249 193.915 73.7031 194.185 73.7316C194.455 73.76 194.889 73.7742 195.486 73.7742Z" fill="white" style="mix-blend-mode:color"/>
<path d="M178.763 64.4965H180.661V65.6055H180.682C180.838 64.724 182.011 64.2832 184.201 64.2832C185.509 64.2832 186.498 64.5605 187.166 65.115C187.834 65.6553 188.168 66.352 188.168 67.2052V71.4495C188.168 72.0609 188.076 72.5941 187.891 73.0491C187.72 73.5041 187.493 73.8595 187.208 74.1155C186.953 74.3572 186.597 74.5491 186.142 74.6913C185.701 74.8335 185.26 74.9259 184.82 74.9686C184.422 75.0112 183.938 75.0326 183.369 75.0326C182.744 75.0326 182.168 74.9615 181.642 74.8193C181.13 74.6629 180.81 74.4425 180.682 74.1581V79.2555H178.763V64.4965ZM183.412 73.7316C184.151 73.7316 184.713 73.6818 185.097 73.5823C185.495 73.4685 185.779 73.2695 185.95 72.9851C186.121 72.7007 186.206 72.267 186.206 71.6841V67.8877C186.206 67.2478 186.121 66.7715 185.95 66.4587C185.779 66.1459 185.495 65.9397 185.097 65.8402C184.713 65.7264 184.144 65.6695 183.391 65.6695C182.637 65.6695 182.075 65.7264 181.706 65.8402C181.336 65.9397 181.073 66.1459 180.917 66.4587C180.76 66.7573 180.682 67.2336 180.682 67.8877V71.6841C180.682 72.267 180.76 72.7007 180.917 72.9851C181.087 73.2695 181.365 73.4685 181.748 73.5823C182.132 73.6818 182.687 73.7316 183.412 73.7316Z" fill="white" style="mix-blend-mode:color"/>
<path d="M171.285 64.4965H173.098V66.1814C173.098 65.8544 173.24 65.5487 173.525 65.2643C173.809 64.9657 174.172 64.7311 174.612 64.5605C175.053 64.3756 175.487 64.2832 175.913 64.2832H176.852V65.9255H175.785C174.875 65.9255 174.214 66.0463 173.802 66.288C173.404 66.5155 173.205 66.935 173.205 67.5464V74.8193H171.285V64.4965Z" fill="white" style="mix-blend-mode:color"/>
<path d="M163.535 75.0326C162.625 75.0326 161.943 74.997 161.488 74.9259C161.033 74.8691 160.578 74.734 160.123 74.5207C159.654 74.3074 159.312 73.9662 159.099 73.497C158.886 73.0135 158.779 72.3666 158.779 71.5561V67.973C158.779 67.3331 158.857 66.7715 159.014 66.288C159.17 65.8046 159.376 65.4278 159.632 65.1577C159.846 64.9159 160.166 64.7311 160.592 64.6031C161.033 64.4609 161.481 64.3685 161.936 64.3259C162.448 64.2974 162.981 64.2832 163.535 64.2832C164.275 64.2832 164.829 64.3045 165.199 64.3472C165.583 64.3756 165.988 64.4467 166.415 64.5605C166.855 64.6884 167.197 64.8804 167.438 65.1363C167.68 65.3923 167.886 65.762 168.057 66.2454C168.213 66.743 168.292 67.3189 168.292 67.973V71.5561C168.292 72.7647 168.014 73.6463 167.46 74.2008C167.232 74.4283 166.905 74.606 166.479 74.734C166.052 74.862 165.611 74.9473 165.156 74.9899C164.616 75.0184 164.076 75.0326 163.535 75.0326ZM163.535 73.7742C164.133 73.7742 164.566 73.76 164.836 73.7316C165.107 73.7031 165.37 73.6249 165.626 73.497C165.881 73.3832 166.059 73.1984 166.159 72.9424C166.273 72.6723 166.329 72.3026 166.329 71.8334V67.653C166.329 67.0132 166.251 66.5511 166.095 66.2667C165.938 65.9681 165.668 65.7762 165.284 65.6909C164.915 65.5913 164.332 65.5416 163.535 65.5416C162.739 65.5416 162.149 65.5913 161.765 65.6909C161.395 65.7762 161.132 65.9681 160.976 66.2667C160.82 66.5511 160.741 67.0132 160.741 67.653V71.8334C160.741 72.3026 160.791 72.6723 160.891 72.9424C161.004 73.1984 161.189 73.3832 161.445 73.497C161.701 73.6249 161.964 73.7031 162.234 73.7316C162.505 73.76 162.938 73.7742 163.535 73.7742Z" fill="white" style="mix-blend-mode:color"/>
<path d="M152.648 75.0325C148.767 75.0325 146.826 73.7813 146.826 71.2788V64.7097C146.826 62.065 148.767 60.7427 152.648 60.7427C153.971 60.7427 155.236 60.8778 156.445 61.1479V62.6835C155.08 62.3423 153.829 62.1717 152.691 62.1717C152.137 62.1717 151.653 62.2072 151.241 62.2783C150.828 62.3352 150.43 62.4418 150.046 62.5982C149.222 62.9537 148.809 63.6504 148.809 64.6884V71.1721C148.809 72.7646 150.132 73.5609 152.776 73.5609C153.914 73.5609 155.165 73.3903 156.53 73.049V74.6273C155.322 74.8974 154.028 75.0325 152.648 75.0325Z" fill="white" style="mix-blend-mode:color"/>
</svg>
